<svg xmlns="http://www.w3.org/2000/svg" xmlns:xlink="http://www.w3.org/1999/xlink" width="60" zoomAndPan="magnify" viewBox="0 0 45 44.999999" height="60" preserveAspectRatio="xMidYMid meet" version="1.0"><path fill="#485160" d="M 5.0625 2.191406 C 7.859375 2.191406 10.128906 4.433594 10.128906 7.199219 C 10.128906 9.964844 7.859375 12.210938 5.0625 12.210938 C 2.265625 12.210938 0 9.964844 0 7.199219 C 0 4.433594 2.265625 2.191406 5.0625 2.191406 Z M 28.109375 4.933594 C 29.300781 4.933594 30.265625 5.949219 30.265625 7.199219 C 30.265625 8.449219 29.300781 9.464844 28.109375 9.464844 C 27.554688 9.464844 27.03125 9.246094 26.640625 8.855469 L 26.613281 8.828125 L 26.613281 10.988281 C 26.605469 11.046875 26.558594 11.09375 26.5 11.097656 L 25.710938 11.097656 C 25.652344 11.09375 25.605469 11.046875 25.597656 10.988281 L 25.597656 5.160156 C 25.605469 5.101562 25.652344 5.054688 25.710938 5.046875 L 26.5 5.046875 C 26.558594 5.054688 26.605469 5.101562 26.613281 5.160156 L 26.613281 5.570312 C 27.003906 5.164062 27.546875 4.933594 28.109375 4.933594 Z M 3.820312 4.820312 C 2.085938 6.539062 2.644531 9.59375 2.644531 9.59375 C 2.644531 9.59375 5.734375 10.140625 7.46875 8.429688 C 8.429688 7.476562 8.394531 5.890625 7.386719 4.902344 C 6.378906 3.910156 4.785156 3.871094 3.820312 4.820312 Z M 31.960938 3.300781 L 31.972656 3.300781 C 32.03125 3.304688 32.082031 3.355469 32.085938 3.414062 L 32.085938 5.570312 C 32.480469 5.164062 33.019531 4.933594 33.585938 4.933594 C 34.773438 4.933594 35.738281 5.949219 35.738281 7.199219 C 35.738281 8.449219 34.773438 9.464844 33.585938 9.464844 C 33.027344 9.464844 32.503906 9.246094 32.113281 8.855469 L 32.085938 8.828125 L 32.085938 9.238281 C 32.082031 9.296875 32.03125 9.347656 31.972656 9.351562 L 31.199219 9.351562 C 31.132812 9.351562 31.078125 9.300781 31.074219 9.238281 L 31.074219 3.425781 C 31.074219 3.359375 31.125 3.308594 31.1875 3.300781 Z M 38.546875 4.933594 C 39.832031 4.933594 40.875 5.949219 40.875 7.199219 C 40.875 8.449219 39.832031 9.464844 38.546875 9.464844 C 37.257812 9.464844 36.214844 8.449219 36.214844 7.199219 C 36.214844 5.949219 37.257812 4.933594 38.546875 4.933594 Z M 21.914062 4.933594 C 22.46875 4.933594 22.992188 5.15625 23.382812 5.542969 L 23.410156 5.570312 L 23.410156 5.160156 C 23.417969 5.101562 23.464844 5.054688 23.523438 5.046875 L 24.300781 5.046875 C 24.363281 5.046875 24.417969 5.097656 24.425781 5.160156 L 24.425781 9.238281 C 24.417969 9.296875 24.371094 9.347656 24.3125 9.351562 L 23.523438 9.351562 C 23.464844 9.347656 23.417969 9.296875 23.410156 9.238281 L 23.410156 8.828125 C 23.019531 9.234375 22.476562 9.464844 21.914062 9.464844 C 20.722656 9.464844 19.761719 8.449219 19.761719 7.199219 C 19.761719 5.949219 20.722656 4.933594 21.914062 4.933594 Z M 44.875 5.042969 C 44.898438 5.042969 44.921875 5.046875 44.9375 5.058594 C 44.984375 5.089844 45.003906 5.15625 44.976562 5.207031 L 44.972656 5.214844 L 43.660156 7.1875 L 44.984375 9.175781 C 44.996094 9.199219 45 9.222656 45 9.246094 C 45 9.304688 44.953125 9.351562 44.898438 9.355469 L 44.886719 9.359375 L 44.015625 9.359375 C 43.953125 9.359375 43.894531 9.328125 43.859375 9.28125 L 43.847656 9.269531 L 43.0625 7.972656 L 42.277344 9.269531 C 42.246094 9.320312 42.191406 9.351562 42.128906 9.355469 L 42.113281 9.359375 L 41.230469 9.359375 C 41.207031 9.359375 41.183594 9.351562 41.167969 9.339844 C 41.117188 9.308594 41.101562 9.242188 41.125 9.191406 L 41.132812 9.183594 L 42.453125 7.195312 L 41.144531 5.222656 C 41.132812 5.203125 41.125 5.183594 41.125 5.160156 C 41.125 5.101562 41.171875 5.054688 41.230469 5.046875 L 42.125 5.046875 C 42.1875 5.046875 42.246094 5.074219 42.28125 5.125 L 42.289062 5.136719 L 43.058594 6.410156 L 43.828125 5.132812 C 43.859375 5.078125 43.914062 5.046875 43.976562 5.042969 Z M 17.476562 4.933594 C 18.347656 4.933594 19.058594 5.589844 19.078125 6.410156 L 19.078125 6.4375 L 19.082031 9.226562 L 19.082031 9.238281 C 19.074219 9.296875 19.027344 9.347656 18.96875 9.351562 L 18.1875 9.351562 C 18.125 9.351562 18.070312 9.300781 18.0625 9.238281 L 18.0625 6.75 C 18.0625 6.226562 17.660156 5.824219 17.175781 5.824219 C 16.742188 5.824219 16.390625 6.195312 16.3125 6.675781 L 16.308594 6.703125 L 16.3125 9.226562 L 16.3125 9.238281 C 16.308594 9.296875 16.257812 9.347656 16.199219 9.351562 L 15.417969 9.351562 C 15.355469 9.351562 15.300781 9.300781 15.292969 9.238281 L 15.292969 6.75 C 15.292969 6.226562 14.890625 5.824219 14.40625 5.824219 C 13.945312 5.824219 13.570312 6.246094 13.53125 6.773438 L 13.527344 6.800781 L 13.527344 9.238281 C 13.523438 9.296875 13.472656 9.347656 13.414062 9.351562 L 12.628906 9.351562 C 12.570312 9.347656 12.519531 9.296875 12.515625 9.238281 L 12.515625 5.160156 C 12.519531 5.101562 12.570312 5.054688 12.628906 5.046875 L 13.414062 5.046875 C 13.472656 5.054688 13.523438 5.101562 13.527344 5.160156 L 13.527344 5.53125 C 13.800781 5.160156 14.242188 4.933594 14.707031 4.933594 C 15.304688 4.929688 15.863281 5.253906 16.144531 5.78125 C 16.386719 5.265625 16.90625 4.941406 17.476562 4.933594 Z M 33.410156 5.839844 C 32.695312 5.839844 32.117188 6.421875 32.09375 7.152344 L 32.09375 7.214844 C 32.097656 7.960938 32.683594 8.558594 33.410156 8.558594 C 34.132812 8.558594 34.722656 7.949219 34.722656 7.199219 C 34.722656 6.449219 34.136719 5.839844 33.410156 5.839844 Z M 38.539062 5.839844 C 37.816406 5.839844 37.226562 6.449219 37.226562 7.199219 C 37.226562 7.949219 37.8125 8.558594 38.539062 8.558594 C 39.265625 8.558594 39.855469 7.949219 39.855469 7.199219 C 39.855469 6.449219 39.265625 5.839844 38.539062 5.839844 Z M 22.089844 5.839844 C 21.367188 5.839844 20.773438 6.449219 20.773438 7.199219 C 20.773438 7.949219 21.359375 8.558594 22.089844 8.558594 C 22.804688 8.558594 23.386719 7.976562 23.40625 7.246094 L 23.40625 7.183594 C 23.398438 6.4375 22.8125 5.839844 22.089844 5.839844 Z M 27.933594 5.839844 C 27.21875 5.839844 26.644531 6.421875 26.617188 7.152344 L 26.617188 7.214844 C 26.625 7.960938 27.210938 8.558594 27.933594 8.558594 C 28.664062 8.558594 29.25 7.949219 29.25 7.199219 C 29.25 6.449219 28.664062 5.839844 27.933594 5.839844 Z M 5.644531 5.125 L 6.140625 6.132812 L 7.160156 6.625 L 6.140625 7.113281 L 5.644531 8.125 L 5.148438 7.113281 L 4.128906 6.625 L 5.148438 6.132812 Z M 5.644531 5.125 " fill-opacity="1" fill-rule="nonzero"/></svg>